<svg width="22" height="20" viewBox="0 0 22 20" fill="none" xmlns="http://www.w3.org/2000/svg">
<path fill-rule="evenodd" clip-rule="evenodd" d="M2.8949 1.10515C5.87587 -0.723376 8.5501 0.00537086 10.1656 1.21861C10.4314 1.4182 10.6138 1.5548 10.7496 1.64704C10.8854 1.5548 11.0678 1.4182 11.3336 1.21861C12.9491 0.00537086 15.6234 -0.723376 18.6043 1.10515C20.6656 2.36952 21.8254 5.0106 21.4184 8.04511C21.0095 11.0943 19.0359 14.5429 14.8563 17.6365C14.8213 17.6624 14.7866 17.6881 14.7522 17.7135C13.3009 18.7884 12.3397 19.5003 10.7496 19.5003C9.15955 19.5003 8.19836 18.7884 6.74698 17.7135C6.71258 17.6881 6.67791 17.6624 6.64294 17.6365C2.46334 14.5429 0.489756 11.0943 0.080808 8.04511C-0.326176 5.0106 0.833655 2.36952 2.8949 1.10515ZM10.5929 1.74369C10.5897 1.74514 10.5902 1.74467 10.5943 1.74305C10.5937 1.74329 10.5933 1.74351 10.5929 1.74369ZM10.905 1.74305C10.909 1.74467 10.9096 1.74514 10.9064 1.74369C10.9059 1.74351 10.9055 1.74329 10.905 1.74305ZM9.26488 2.41804C8.06836 1.51948 6.06152 0.922455 3.6792 2.38377C2.22107 3.27819 1.22304 5.27746 1.5675 7.84572C1.90998 10.3993 3.59713 13.5159 7.53534 16.4308C9.1175 17.6019 9.69498 18.0003 10.7496 18.0003C11.8042 18.0003 12.3817 17.6019 13.9639 16.4308C17.9021 13.5159 19.5892 10.3993 19.9317 7.84572C20.2762 5.27746 19.2781 3.27819 17.82 2.38377C15.4377 0.922455 13.4309 1.51948 12.2343 2.41804L12.2134 2.43375C11.943 2.63682 11.7108 2.81124 11.525 2.93287C11.4284 2.99609 11.3215 3.06047 11.2105 3.11061C11.1052 3.1582 10.9434 3.21774 10.7496 3.21774C10.5558 3.21774 10.394 3.1582 10.2887 3.11061C10.1777 3.06047 10.0708 2.99609 9.97422 2.93287C9.78842 2.81124 9.55616 2.6368 9.28575 2.43372L9.26488 2.41804Z" fill="#161616"/>
</svg>
