<svg width="24" height="24" viewBox="0 0 24 24" fill="none" xmlns="http://www.w3.org/2000/svg">
<path fill-rule="evenodd" clip-rule="evenodd" d="M7.55003 5.35365C8.74411 4.42161 9.58829 3.76427 10.3025 3.3324C10.9995 2.91093 11.5013 2.75 12.0001 2.75C12.4988 2.75 13.0006 2.91093 13.6976 3.3324C14.4119 3.76428 15.256 4.42161 16.4501 5.35365L17.4501 6.1342C19.0245 7.36309 19.6062 7.83976 19.9191 8.4819C20.2323 9.12444 20.2501 9.87877 20.2501 11.8803V13.9715C20.2501 15.885 20.2485 17.2449 20.1103 18.2766C19.9749 19.2871 19.7209 19.8697 19.2972 20.2949C18.8739 20.7197 18.2945 20.9741 17.2889 21.1098C16.8435 21.1699 16.3367 21.2042 15.75 21.2238V17.9738C15.75 17.5298 15.75 17.1591 15.7293 16.8548C15.7077 16.538 15.6611 16.2387 15.5411 15.9486C15.2619 15.274 14.726 14.7381 14.0514 14.4589C13.7613 14.3389 13.462 14.2923 13.1452 14.2707C12.8409 14.25 12.4702 14.25 12.0262 14.25H11.9757H11.9757C11.5319 14.25 11.1614 14.25 10.8572 14.2707C10.5405 14.2923 10.2413 14.3388 9.95127 14.4588C9.27686 14.7378 8.74099 15.2734 8.46171 15.9477C8.34159 16.2377 8.29492 16.5368 8.27318 16.8535C8.2523 17.1577 8.25213 17.5282 8.25193 17.972L8.25037 21.2238C7.66363 21.2042 7.15672 21.1699 6.71128 21.1098C5.70567 20.9741 5.12624 20.7197 4.70292 20.2949C4.27924 19.8697 4.02525 19.2871 3.88988 18.2766C3.75166 17.2449 3.75008 15.885 3.75008 13.9715V11.8803C3.75008 9.87877 3.76787 9.12444 4.08102 8.48189C4.39396 7.83977 4.97564 7.36309 6.55003 6.1342L7.55003 5.35365ZM9.75036 21.248C10.1387 21.2499 10.5543 21.25 11.0001 21.25H13.0001C13.446 21.25 13.8616 21.2499 14.25 21.248V17.999C14.25 17.5233 14.2496 17.204 14.2327 16.9568C14.2163 16.7163 14.1869 16.5992 14.155 16.5221C14.0282 16.2154 13.7846 15.9718 13.4779 15.845C13.4008 15.8131 13.2837 15.7837 13.0432 15.7673C12.796 15.7504 12.4767 15.75 12.001 15.75C11.5254 15.75 11.2063 15.7504 10.9592 15.7672C10.7188 15.7836 10.6017 15.813 10.5246 15.8449C10.2181 15.9717 9.97448 16.2152 9.84754 16.5217C9.81562 16.5987 9.78616 16.7158 9.76966 16.9562C9.7527 17.2033 9.75214 17.5224 9.75192 17.998L9.75036 21.248ZM12.0001 1.25C11.1264 1.25 10.3521 1.54948 9.52635 2.04882C8.72657 2.53243 7.81252 3.2459 6.66505 4.14157L5.62708 4.95176L5.4817 5.06519C4.10576 6.13845 3.21633 6.83222 2.73262 7.82476C2.2491 8.8169 2.24947 9.9466 2.25004 11.6956L2.25008 11.8803L2.25008 14.0278C2.25006 15.8724 2.25005 17.3329 2.40317 18.4758C2.56069 19.6516 2.89249 20.6031 3.64038 21.3536C4.38864 22.1046 5.3378 22.438 6.51071 22.5963C7.65009 22.75 9.10587 22.75 10.9435 22.75H13.0567C14.8943 22.75 16.3501 22.75 17.4895 22.5963C18.6624 22.438 19.6115 22.1046 20.3598 21.3536C21.1077 20.6031 21.4395 19.6516 21.597 18.4758C21.7501 17.3329 21.7501 15.8724 21.7501 14.0278V14.0277V11.8803L21.7501 11.6956C21.7507 9.9466 21.7511 8.81691 21.2675 7.82476C20.7838 6.83222 19.8944 6.13845 18.5185 5.06519L18.3731 4.95177L17.3351 4.14158C16.1876 3.2459 15.2736 2.53243 14.4738 2.04882C13.648 1.54948 12.8738 1.25 12.0001 1.25Z" fill="#161616"/>
</svg>
