<svg width="22" height="22" viewBox="0 0 22 22" fill="none" xmlns="http://www.w3.org/2000/svg">
<path fill-rule="evenodd" clip-rule="evenodd" d="M0 8.5C0 3.80558 3.80558 0 8.5 0C13.1944 0 17 3.80558 17 8.5C17 10.4869 16.3183 12.3145 15.176 13.7618L16.7072 15.293L16.6686 15.3315C17.3429 15.1321 18.1024 15.2985 18.6346 15.8307L21.1693 18.3654C21.9436 19.1396 21.9436 20.395 21.1693 21.1693C20.395 21.9436 19.1396 21.9436 18.3654 21.1693L15.8307 18.6346C15.2985 18.1024 15.1321 17.3429 15.3315 16.6686L15.293 16.7072L13.7618 15.176C12.3145 16.3183 10.4869 17 8.5 17C3.80558 17 0 13.1944 0 8.5ZM8.5 2C4.91015 2 2 4.91015 2 8.5C2 12.0899 4.91015 15 8.5 15C12.0899 15 15 12.0899 15 8.5C15 4.91015 12.0899 2 8.5 2Z" fill="#161616"/>
</svg>
